<svg width="32" height="32" viewBox="0 0 32 32" fill="none" xmlns="http://www.w3.org/2000/svg">
<g id="Logo Icon">
<path id="Union" fill-rule="evenodd" clip-rule="evenodd" d="M13.4578 15.1822C12.7295 14.1584 12.1663 13.0407 11.7769 11.87L3.43188 14.9784C2.68058 15.2586 2.68058 16.3141 3.43188 16.5943L11.8747 19.7391L15.0291 28.1561C15.3101 28.9049 16.3684 28.9051 16.6498 28.1567L16.65 28.1561L17.0603 27.0573L17.0608 27.056C18.3938 23.4969 17.5238 19.4865 14.8278 16.7998L14.8238 16.7958L14.823 16.795C14.5835 16.556 14.3551 16.3088 14.1379 16.0543C13.8973 15.7723 13.6705 15.4813 13.4578 15.1822ZM19.3348 29.1627C18.1217 32.3839 13.5525 32.3824 12.3426 29.1581L9.6455 21.9615L2.42739 19.2729L2.42683 19.2726C-0.808945 18.0658 -0.808945 13.5069 2.42683 12.3001L9.6455 9.61125L12.3418 2.41679L12.3424 2.41523L12.3482 2.41741C13.5599 -0.80647 18.1312 -0.805803 19.3414 2.41941L22.0385 9.616L29.5484 12.4133L29.5779 12.4427C32.4941 13.8197 32.3888 18.116 29.262 19.2822L29.2614 19.2824L22.0433 21.971L19.3464 29.167L19.3348 29.1627ZM16.3906 14.28C16.5404 14.4518 16.6969 14.6192 16.8602 14.7817L16.861 14.7825C18.2774 16.1945 19.3055 17.889 19.9119 19.7122L28.2569 16.6038C29.0082 16.3236 29.0082 15.2681 28.2569 14.9879L27.9655 14.8792L27.9609 14.8747L19.8093 11.8384L16.6549 3.42138L16.6547 3.42082C16.3734 2.67264 15.3158 2.67256 15.0343 3.42061L15.0341 3.42138L14.6232 4.52151C14.1751 5.71789 13.976 6.96528 14.0114 8.19624L15.3547 12.8459C15.5312 13.1445 15.7246 13.4348 15.9344 13.7155C16.0787 13.9084 16.2308 14.0967 16.3906 14.28ZM15.354 12.8447L14.0114 8.19698C14.0585 9.82726 14.5171 11.4287 15.354 12.8447Z" fill="url(#paint0_linear_118_171)"/>
</g>
<defs>
<linearGradient id="paint0_linear_118_171" x1="22.5746" y1="28.2408" x2="3.75853" y2="-36.0891" gradientUnits="userSpaceOnUse">
<stop stop-color="#C697FC"/>
<stop offset="0.386361" stop-color="#FF5A08"/>
</linearGradient>
</defs>
</svg>
