<svg width="360" height="40" viewBox="0 0 360 40" fill="none" xmlns="http://www.w3.org/2000/svg">
<path fill-rule="evenodd" clip-rule="evenodd" d="M40 40C39.9875 29.0711 31.0381 20.2151 20 20.2151C8.96186 20.2151 0.0124281 29.0711 0 40H40Z" fill="#2A74FF"/>
<path fill-rule="evenodd" clip-rule="evenodd" d="M26.9826 7.81725C24.299 5.5482 22.0124 2.93941 20.1064 0C19.4691 0.981675 18.783 1.93466 18.0428 2.85526C15.8315 5.60541 13.2895 7.94904 10.4255 9.90292C11.3808 10.5553 12.3082 11.2575 13.2042 12.0152C15.8732 14.2719 18.1492 16.8651 20.0489 19.7849C20.695 18.7863 21.3916 17.8175 22.144 16.8818C24.3374 14.1538 26.8568 11.8264 29.6924 9.88212C28.7616 9.243 27.8571 8.55667 26.9826 7.81725" fill="#2A74FF"/>
<path fill-rule="evenodd" clip-rule="evenodd" d="M60 40C49.0023 39.9785 40.0924 31.0509 40.0799 20.0367H40L40 0L60 0L60.0105 0L80 0V20.0137L80 40L60.0398 40H60V40Z" fill="#06EFC2"/>
<path fill-rule="evenodd" clip-rule="evenodd" d="M101.401 24.6415C100.887 25.265 100.411 25.9106 99.9696 26.576C98.6715 24.6304 97.1165 22.9024 95.2928 21.3986C94.6806 20.8938 94.047 20.4258 93.3943 19.9911C95.3511 18.6891 97.088 17.1274 98.5989 15.2949C99.1046 14.6814 99.5734 14.0463 100.009 13.3923C101.311 15.3509 102.873 17.0893 104.707 18.6013C105.304 19.094 105.922 19.5513 106.558 19.9772C104.621 21.2728 102.9 22.8237 101.401 24.6415M120 16.4428C120 16.4416 120 16.4404 120 16.4392C120 16.4206 120 16.402 120 16.3834C120.001 16.0585 119.875 15.9374 119.549 15.9298C119.214 15.9219 118.88 15.9293 118.547 15.9475C118.149 15.9032 117.753 15.8344 117.358 15.7659C113.107 15.0294 109.684 12.9177 107.123 9.46277C105.183 6.84502 104.171 3.87576 104.086 0.605616C104.083 0.480026 104.077 0.380279 104.063 0.30082C104.04 0.0968237 103.958 0.0306375 103.729 0.0117522C103.722 0.0110505 103.714 0.0104659 103.706 0.00993963C103.692 0.00900414 103.678 0.00818558 103.663 0.0076009C103.655 0.00725009 103.648 0.00689928 103.64 0.0066654C103.604 0.00549603 103.566 0.00467748 103.524 0.00450207C102.356 0.000818558 101.188 0.0033327 100.02 0.00356657C99.961 0.00356657 99.9015 0.00368351 99.8422 0.00374198C98.7115 0.00362504 97.5807 0.00321576 96.45 0C96.449 0 96.4481 0.000116937 96.447 0.000116937C96.4449 5.84684e-05 96.4428 5.84684e-05 96.4407 5.84684e-05C96.1152 -0.00251414 95.9789 0.123953 95.9905 0.451201C96.0167 1.19118 95.8894 1.91753 95.7638 2.6426C95.0274 6.89431 92.916 10.3176 89.4615 12.8787C86.8441 14.8191 83.8753 15.8307 80.6055 15.9158C80.5232 15.9179 80.4529 15.9216 80.3911 15.9277C80.087 15.9376 80.0187 16.0223 80.0069 16.3516C80.0069 16.3524 80.0068 16.3531 80.0068 16.3539C80.0055 16.3908 80.0047 16.4296 80.0045 16.4728C80.0009 17.6409 80.0034 18.8089 80.0035 19.977C80.0035 20.0368 80.0037 20.0968 80.0037 20.1567C80.0037 21.2888 80.0032 22.4209 80 23.553C80 23.5538 80.0001 23.5544 80.0001 23.5551C80 23.5558 80.0001 23.5565 80 23.5572C79.9975 23.8827 80.124 24.019 80.4511 24.0074C80.4591 24.0071 80.4671 24.0071 80.4751 24.0068C80.608 24.0097 80.7407 24.0098 80.8733 24.0081C81.4682 24.0298 82.0556 24.1324 82.6422 24.2341C86.8934 24.9706 90.3162 27.0823 92.877 30.5372C94.8172 33.155 95.8286 36.1242 95.9137 39.3944C95.927 39.9059 95.9889 39.9937 96.4289 39.9944C98.8026 39.9984 101.176 39.9933 103.55 40C103.821 40.0007 103.95 39.9129 103.99 39.6949C104.006 39.6369 104.012 39.5674 104.009 39.4853C103.983 38.7453 104.111 38.0189 104.236 37.2938C104.973 33.0421 107.084 29.6188 110.538 27.0578C112.993 25.2378 115.757 24.2351 118.789 24.0473C119.008 24.0581 119.227 24.0671 119.447 24.0723C119.934 24.0837 119.994 24.0198 119.995 23.5271C119.999 22.3591 119.997 21.1911 119.996 20.023C119.996 19.9573 119.996 19.8914 119.996 19.8257C119.996 18.7052 119.997 17.5848 120 16.4644C120 16.4572 120 16.45 120 16.4428" fill="#FF756A"/>
<circle cx="140" cy="20" r="20" fill="#0C0662"/>
<path fill-rule="evenodd" clip-rule="evenodd" d="M160.012 0.235947C160.122 4.4029 161.427 8.18639 163.93 11.5219C167.234 15.9243 171.65 18.615 177.134 19.5535C177.644 19.6408 178.155 19.7285 178.668 19.7849C179.098 19.7618 179.53 19.7522 179.962 19.7623C179.975 19.7627 179.987 19.7635 180 19.7641C177.927 9.85612 170.029 2.05252 160 0C160.006 0.069659 160.01 0.14729 160.012 0.235947" fill="#FFB600"/>
<mask id="mask0_3_261" style="mask-type:luminance" maskUnits="userSpaceOnUse" x="180" y="0" width="20" height="20">
<path fill-rule="evenodd" clip-rule="evenodd" d="M180 0H200V19.7849H180V0Z" fill="white"/>
</mask>
<g mask="url(#mask0_3_261)">
<path fill-rule="evenodd" clip-rule="evenodd" d="M180.235 19.7733C184.435 19.6647 188.248 18.3751 191.61 15.9012C196.047 12.636 198.758 8.27172 199.704 2.85109C199.866 1.92669 200.029 1.00065 199.996 0.0572484C199.995 0.0374202 199.995 0.0187101 199.995 0C189.973 2.02568 182.073 9.8468 180 19.785C180.069 19.7794 180.147 19.7756 180.235 19.7733" fill="#FFB600"/>
</g>
<path fill-rule="evenodd" clip-rule="evenodd" d="M199.988 39.7622C199.879 35.5623 198.575 31.7489 196.074 28.387C192.772 23.9498 188.36 21.2378 182.88 20.2919C182.124 20.1613 181.366 20.0294 180.599 20.0017C180.429 20.0038 180.257 20.0037 180.086 20C180.076 20.0003 180.065 20.0003 180.055 20.0007C180.036 20.0014 180.018 20.0012 180 20.0011C182.047 30.0247 189.953 37.9258 200 40C199.994 39.9298 199.991 39.8514 199.988 39.7622" fill="#FFB600"/>
<mask id="mask1_3_261" style="mask-type:luminance" maskUnits="userSpaceOnUse" x="160" y="20" width="20" height="20">
<path fill-rule="evenodd" clip-rule="evenodd" d="M160 20H180V40H160V20Z" fill="white"/>
</mask>
<g mask="url(#mask1_3_261)">
<path fill-rule="evenodd" clip-rule="evenodd" d="M179.832 20.0322C179.549 20.0256 179.268 20.0139 178.986 20C175.093 20.2416 171.543 21.5317 168.39 23.8728C163.953 27.1675 161.241 31.5711 160.296 37.0407C160.134 37.9734 159.971 38.9078 160.004 39.8598C160.006 39.9102 160.005 39.9568 160.001 40C170.026 37.957 177.928 30.0634 180 20.0329C179.949 20.0338 179.894 20.0337 179.832 20.0322" fill="#FFB600"/>
</g>
<path fill-rule="evenodd" clip-rule="evenodd" d="M224.179 0.201181C224.266 3.50408 225.299 6.50302 227.28 9.14689C229.895 12.6364 233.391 14.7691 237.732 15.5131C238.135 15.5822 238.54 15.6518 238.946 15.6965C239.286 15.6781 239.628 15.6706 239.97 15.6786C239.98 15.6789 239.99 15.6795 240 15.68C238.359 7.82652 232.108 1.64107 224.17 0.0141602C224.174 0.0693747 224.177 0.130908 224.179 0.201181" fill="#2A74FF"/>
<path fill-rule="evenodd" clip-rule="evenodd" d="M224.813 18.3769C222.941 16.8498 221.345 15.094 220.016 13.1157C219.571 13.7764 219.092 14.4178 218.576 15.0374C217.033 16.8883 215.259 18.4656 213.261 19.7806C213.927 20.2196 214.575 20.6922 215.2 21.2021C217.062 22.721 218.65 24.4662 219.975 26.4314C220.426 25.7593 220.912 25.1072 221.437 24.4775C222.968 22.6415 224.725 21.0751 226.704 19.7666C226.054 19.3364 225.423 18.8745 224.813 18.3769" fill="#2A74FF"/>
<mask id="mask2_3_261" style="mask-type:luminance" maskUnits="userSpaceOnUse" x="200" y="0" width="16" height="16">
<path fill-rule="evenodd" clip-rule="evenodd" d="M200.014 0H215.916V15.6738H200.014V0Z" fill="white"/>
</mask>
<g mask="url(#mask2_3_261)">
<path opacity="0.8" fill-rule="evenodd" clip-rule="evenodd" d="M200.201 15.6646C203.54 15.5786 206.572 14.5569 209.245 12.5971C212.773 10.0104 214.929 6.55294 215.681 2.25866C215.809 1.52634 215.939 0.792728 215.912 0.0453527C215.912 0.0296446 215.912 0.0148223 215.912 0C207.943 1.60477 201.662 7.80073 200.014 15.6739C200.07 15.6694 200.131 15.6664 200.201 15.6646" fill="#2A74FF"/>
</g>
<path fill-rule="evenodd" clip-rule="evenodd" d="M215.834 39.3778C215.747 36.0749 214.714 33.076 212.733 30.4321C210.118 26.9426 206.622 24.8099 202.281 24.066C201.682 23.9633 201.082 23.8596 200.475 23.8377C200.339 23.8394 200.204 23.8393 200.068 23.8364C200.06 23.8367 200.052 23.8367 200.044 23.837C200.029 23.8375 200.014 23.8374 200 23.8373C201.621 31.7201 207.884 37.9336 215.843 39.5648C215.838 39.5096 215.836 39.448 215.834 39.3778" fill="#2A74FF"/>
<path opacity="0.8" fill-rule="evenodd" clip-rule="evenodd" d="M239.866 23.9027C239.641 23.8975 239.417 23.8884 239.193 23.8774C236.097 24.0671 233.275 25.08 230.768 26.9181C227.24 29.5048 225.084 32.9622 224.332 37.2565C224.204 37.9888 224.074 38.7224 224.101 39.4698C224.102 39.5094 224.101 39.546 224.098 39.5799C232.069 37.9759 238.352 31.7784 239.999 23.9032C239.958 23.904 239.915 23.9039 239.866 23.9027" fill="#2A74FF"/>
<path fill-rule="evenodd" clip-rule="evenodd" d="M274.374 15.8044C268.803 11.217 264.056 5.94272 260.099 0C258.775 1.98469 257.351 3.91137 255.814 5.7726C251.223 11.3327 245.946 16.0709 240 20.0211C241.983 21.34 243.909 22.7597 245.769 24.2915C251.31 28.8541 256.035 34.0968 259.979 40C261.32 37.9811 262.767 36.0223 264.329 34.1305C268.882 28.6153 274.113 23.91 280 19.9791C278.067 18.6869 276.19 17.2993 274.374 15.8044" fill="#FF756A"/>
<path fill-rule="evenodd" clip-rule="evenodd" d="M300 10C300 15.5229 295.523 20 290 20C284.477 20 280 15.5229 280 10C280 4.47713 284.477 0 290 0C295.523 0 300 4.47713 300 10" fill="#FFB600"/>
<path fill-rule="evenodd" clip-rule="evenodd" d="M300 30C300 35.5229 295.523 40 290 40C284.477 40 280 35.5229 280 30C280 24.4771 284.477 20 290 20C295.523 20 300 24.4771 300 30" fill="#FFB600"/>
<path fill-rule="evenodd" clip-rule="evenodd" d="M320 10C320 15.5229 315.523 20 310 20C304.477 20 300 15.5229 300 10C300 4.47713 304.477 0 310 0C315.523 0 320 4.47713 320 10" fill="#FFB600"/>
<path fill-rule="evenodd" clip-rule="evenodd" d="M320 30C320 35.5229 315.523 40 310 40C304.477 40 300 35.5229 300 30C300 24.4771 304.477 20 310 20C315.523 20 320 24.4771 320 30" fill="#FFB600"/>
<path fill-rule="evenodd" clip-rule="evenodd" d="M340 33.2847C332.663 33.2847 326.715 27.3369 326.715 20C326.715 12.6631 332.663 6.71533 340 6.71533C347.337 6.71533 353.285 12.6631 353.285 20C353.285 27.3369 347.337 33.2847 340 33.2847M340 0C328.954 0 320 8.95431 320 20C320 31.0457 328.954 40 340 40C351.046 40 360 31.0457 360 20C360 8.95431 351.046 0 340 0" fill="#0C0662"/>
</svg>
