<svg width="80" height="80" viewBox="0 0 80 80" fill="none" xmlns="http://www.w3.org/2000/svg">
<path fill-rule="evenodd" clip-rule="evenodd" d="M0.0236833 0.471893C0.243319 8.80579 2.85316 16.3728 7.85953 23.0438C14.4672 31.8485 23.2991 37.2299 34.2687 39.1071C35.2885 39.2816 36.3096 39.4569 37.3368 39.5699C38.1968 39.5236 39.059 39.5045 39.9235 39.5246C39.9501 39.5253 39.9745 39.527 40 39.5282C35.853 19.7122 20.0581 4.10504 0 0C0.0114645 0.139318 0.019007 0.294579 0.0236833 0.471893Z" fill="#FFB600"/>
<mask id="mask0_123_1593" style="mask-type:alpha" maskUnits="userSpaceOnUse" x="40" y="0" width="40" height="40">
<path fill-rule="evenodd" clip-rule="evenodd" d="M40 0H80V39.5699H40V0Z" fill="white"/>
</mask>
<g mask="url(#mask0_123_1593)">
<path fill-rule="evenodd" clip-rule="evenodd" d="M40.4703 39.5466C48.8697 39.3295 56.4959 36.7502 63.2195 31.8024C72.0934 25.272 77.5169 16.5434 79.4088 5.70218C79.7315 3.85338 80.0583 2.00131 79.9912 0.114497C79.9897 0.0748403 79.99 0.0374202 79.9903 0C59.9451 4.05137 44.1455 19.6936 40 39.57C40.1389 39.5588 40.2933 39.5512 40.4703 39.5466Z" fill="#FFB600"/>
</g>
<path fill-rule="evenodd" clip-rule="evenodd" d="M79.9765 79.5244C79.757 71.1246 77.1493 63.4979 72.147 56.7739C65.5448 47.8996 56.7201 42.4756 45.7595 40.5838C44.2471 40.3226 42.7325 40.0589 41.1989 40.0033C40.857 40.0075 40.5149 40.0074 40.1723 40C40.1516 40.0006 40.131 40.0006 40.1103 40.0014C40.072 40.0027 40.0362 40.0024 40 40.0023C44.0933 60.0494 59.9057 75.8515 80 80C79.9885 79.8596 79.9812 79.7028 79.9765 79.5244Z" fill="#FFB600"/>
<mask id="mask1_123_1593" style="mask-type:alpha" maskUnits="userSpaceOnUse" x="0" y="40" width="40" height="40">
<path fill-rule="evenodd" clip-rule="evenodd" d="M0 40H40V80H0V40Z" fill="white"/>
</mask>
<g mask="url(#mask1_123_1593)">
<path fill-rule="evenodd" clip-rule="evenodd" d="M39.6644 40.0644C39.0988 40.0511 38.5351 40.0278 37.9723 40C30.1854 40.4832 23.0857 43.0634 16.78 47.7456C7.90635 54.3349 2.48285 63.1423 0.59117 74.0814C0.268457 75.9469 -0.0584603 77.8157 0.00881535 79.7195C0.0124194 79.8204 0.0101669 79.9136 0.00265843 80.0001C20.0525 75.9139 35.8559 60.1268 40 40.0657C39.8973 40.0675 39.7875 40.0674 39.6644 40.0644Z" fill="#FFB600"/>
</g>
</svg>
