<svg width="80" height="80" viewBox="0 0 80 80" fill="none" xmlns="http://www.w3.org/2000/svg">
<path fill-rule="evenodd" clip-rule="evenodd" d="M48.3586 0.402606C48.5324 7.00839 50.5981 13.0063 54.5607 18.294C59.7906 25.273 66.7811 29.5385 75.4636 31.0264C76.2708 31.1647 77.079 31.3037 77.892 31.3933C78.5727 31.3565 79.2552 31.3414 79.9394 31.3574C79.9604 31.358 79.9798 31.3593 80 31.3602C76.7176 15.6533 64.2159 3.28239 48.3398 0.0285645C48.3489 0.138994 48.3549 0.26206 48.3586 0.402606Z" fill="#2A74FF"/>
<path fill-rule="evenodd" clip-rule="evenodd" d="M49.6264 36.754C45.8816 33.6998 42.6908 30.1882 40.0311 26.2317C39.1418 27.5531 38.1843 28.8358 37.1514 30.075C34.0657 33.7768 30.5184 36.9314 26.522 39.5614C27.8549 40.4395 29.1491 41.3847 30.3994 42.4045C34.1239 45.4422 37.2998 48.9327 39.9508 52.8629C40.8524 51.5188 41.8245 50.2147 42.8744 48.9552C45.9351 45.2833 49.4508 42.1505 53.4077 39.5334C52.1088 38.6731 50.8467 37.7493 49.6264 36.754Z" fill="#2A74FF"/>
<mask id="mask0_118_503" style="mask-type:alpha" maskUnits="userSpaceOnUse" x="0" y="0" width="32" height="32">
<path fill-rule="evenodd" clip-rule="evenodd" d="M0.0288086 0H31.8313V31.3477H0.0288086V0Z" fill="white"/>
</mask>
<g mask="url(#mask0_118_503)">
<path opacity="0.8" fill-rule="evenodd" clip-rule="evenodd" d="M0.402761 31.3292C7.08077 31.1572 13.1441 29.1138 18.4898 25.1941C25.5451 20.0207 29.8571 13.1059 31.3613 4.51732C31.6178 3.05269 31.8777 1.58546 31.8242 0.0907054C31.8231 0.0592892 31.8234 0.0296446 31.8236 0C15.8864 3.20953 3.32477 15.6015 0.0288086 31.3477C0.139251 31.3388 0.261992 31.3328 0.402761 31.3292Z" fill="#2A74FF"/>
</g>
<path fill-rule="evenodd" clip-rule="evenodd" d="M31.6674 78.7559C31.4935 72.1501 29.4279 66.1523 25.4653 60.8645C20.2353 53.8855 13.2449 49.62 4.56241 48.1322C3.36438 47.9268 2.16455 47.7194 0.949686 47.6757C0.678893 47.679 0.407861 47.6789 0.136591 47.6731C0.120114 47.6736 0.103756 47.6736 0.0873988 47.6742C0.0570719 47.6752 0.0286554 47.675 0 47.6749C3.24247 63.4404 15.7683 75.8675 31.686 79.1299C31.6769 79.0195 31.6711 78.8962 31.6674 78.7559Z" fill="#2A74FF"/>
<path opacity="0.8" fill-rule="evenodd" clip-rule="evenodd" d="M79.731 47.8052C79.2813 47.7948 78.8331 47.7765 78.3856 47.7546C72.1944 48.134 66.5495 50.1597 61.5359 53.8359C54.4806 59.0093 50.1685 65.9242 48.6644 74.5127C48.4078 75.9774 48.1479 77.4446 48.2014 78.9394C48.2043 79.0186 48.2025 79.0917 48.1965 79.1596C64.1378 75.9515 76.703 63.5566 79.9979 47.8063C79.9162 47.8077 79.8289 47.8076 79.731 47.8052Z" fill="#2A74FF"/>
</svg>
