<svg width="42" height="42" viewBox="0 0 42 42" fill="none" xmlns="http://www.w3.org/2000/svg">
<path fill-rule="evenodd" clip-rule="evenodd" d="M22.4711 25.8736C21.9313 26.5282 21.4315 27.2061 20.9681 27.9048C19.6051 25.862 17.9723 24.0476 16.0575 22.4685C15.4147 21.9385 14.7493 21.4471 14.064 20.9906C16.1187 19.6236 17.9424 17.9838 19.5288 16.0596C20.0598 15.4155 20.5521 14.7487 21.0093 14.0619C22.3766 16.1185 24.0171 17.9438 25.9424 19.5313C26.5697 20.0487 27.2186 20.5289 27.8864 20.9761C25.8521 22.3365 24.0446 23.9649 22.4711 25.8736ZM41.9999 17.265C42 17.2636 41.9998 17.2625 41.9998 17.2611C41.9999 17.2416 41.9999 17.2221 41.9999 17.2026C42.0009 16.8614 41.8689 16.7343 41.5267 16.7263C41.1749 16.718 40.824 16.7258 40.4741 16.7449C40.0562 16.6983 39.6407 16.6261 39.2256 16.5542C34.7619 15.7808 31.1679 13.5636 28.4792 9.9359C26.442 7.18727 25.3799 4.06954 25.2906 0.635897C25.2872 0.504027 25.2805 0.399293 25.2659 0.315861C25.2424 0.101665 25.156 0.0321693 24.9156 0.0123398C24.9077 0.0116031 24.8996 0.0109891 24.8915 0.0104366C24.8769 0.00945435 24.8616 0.00859486 24.8461 0.00798094C24.838 0.00761259 24.8299 0.00724424 24.8215 0.00699867C24.7838 0.00577084 24.7442 0.00491135 24.7003 0.00472717C23.474 0.000859486 22.2477 0.00349934 21.0215 0.0037449C20.9591 0.0037449 20.8966 0.00386769 20.8343 0.00392908C19.647 0.0038063 18.4597 0.00337655 17.2725 0C17.2714 0 17.2705 0.000122784 17.2694 0.000122784C17.2672 6.13919e-05 17.2649 6.13919e-05 17.2627 6.13919e-05C16.921 -0.00263985 16.7778 0.130151 16.79 0.473761C16.8175 1.25074 16.6839 2.01341 16.552 2.77473C15.7787 7.23902 13.5618 10.8335 9.93458 13.5226C7.1863 15.56 4.06905 16.6222 0.635792 16.7116C0.549364 16.7138 0.475519 16.7177 0.410698 16.7241C0.0913794 16.7344 0.0196217 16.8234 0.0072222 17.1692C0.0072222 17.17 0.00716081 17.1708 0.00716081 17.1716C0.00581037 17.2104 0.00488961 17.2511 0.00476685 17.2965C0.000899666 18.5229 0.00353917 19.7493 0.00372332 20.9758C0.00372332 21.0387 0.00390747 21.1016 0.00390747 21.1645C0.00384609 22.3533 0.00335502 23.542 4.02925e-05 24.7307C4.02925e-05 24.7315 0.000101676 24.7321 0.000101676 24.7328C4.02925e-05 24.7336 0.000101676 24.7343 4.02925e-05 24.735C-0.0026606 25.0768 0.130174 25.22 0.473678 25.2077C0.482087 25.2074 0.490497 25.2074 0.498906 25.2072C0.638432 25.2101 0.777773 25.2103 0.916992 25.2085C1.54157 25.2313 2.15842 25.3391 2.77434 25.4458C7.23811 26.2192 10.832 28.4364 13.5208 32.0641C15.558 34.8127 16.62 37.9304 16.7094 41.3641C16.7234 41.9012 16.7884 41.9934 17.2504 41.9941C19.7427 41.9984 22.2351 41.993 24.7275 42C25.0119 42.0008 25.1471 41.9085 25.189 41.6796C25.2062 41.6188 25.213 41.5458 25.2099 41.4595C25.1824 40.6825 25.3161 39.9198 25.4479 39.1585C26.2212 34.6942 28.4382 31.0998 32.0654 28.4107C34.6429 26.4997 37.5451 25.4468 40.7281 25.2496C40.9581 25.261 41.1886 25.2704 41.4197 25.2759C41.9303 25.2879 41.9936 25.2208 41.9952 24.7035C41.9991 23.4771 41.9964 22.2506 41.9962 21.0242C41.9962 20.9551 41.9961 20.886 41.996 20.8169C41.9961 19.6405 41.9966 18.464 41.9998 17.2876C41.9999 17.28 41.9998 17.2725 41.9999 17.265Z" fill="#FFB600"/>
</svg>
