<svg width="572" height="244" viewBox="0 0 572 244" fill="none" xmlns="http://www.w3.org/2000/svg">
<path fill-rule="evenodd" clip-rule="evenodd" d="M79.8402 39.9266C79.8153 17.8716 61.9525 0 39.9204 0C17.8731 0 0 17.8963 0 39.9726C0 62.0489 17.8731 79.9452 39.9204 79.9452C39.9401 79.9452 39.9594 79.9445 39.9789 79.9445V80H80V39.9266H79.8402Z" fill="#FFB600"/>
<path fill-rule="evenodd" clip-rule="evenodd" d="M124.802 49.283C123.774 50.5301 122.822 51.8213 121.939 53.1521C119.343 49.2609 116.233 45.805 112.586 42.7972C111.361 41.7876 110.094 40.8517 108.789 39.9822C112.702 37.3783 116.176 34.2549 119.198 30.5899C120.209 29.3628 121.147 28.0928 122.018 26.7846C124.622 30.7019 127.747 34.1786 131.414 37.2026C132.609 38.1881 133.845 39.1027 135.117 39.9545C131.242 42.5457 127.799 45.6475 124.802 49.283ZM162 32.8857C162 32.8831 162 32.8809 162 32.8783C162 32.8411 162 32.804 162 32.7668C162.002 32.1169 161.75 31.8749 161.099 31.8596C160.428 31.8438 159.76 31.8586 159.094 31.895C158.297 31.8064 157.506 31.6688 156.715 31.5318C148.213 30.0587 141.367 25.8354 136.246 18.9255C132.366 13.69 130.343 7.75151 130.173 1.21123C130.166 0.960052 130.153 0.760557 130.125 0.60164C130.081 0.193647 129.916 0.0612749 129.458 0.0235043C129.443 0.0221011 129.428 0.0209317 129.412 0.0198793C129.385 0.0180083 129.356 0.0163712 129.326 0.0152018C129.31 0.0145002 129.295 0.0137986 129.279 0.0133308C129.207 0.0109921 129.132 0.00935495 129.048 0.00900414C126.712 0.00163712 124.377 0.0066654 122.041 0.00713315C121.922 0.00713315 121.803 0.00736702 121.684 0.00748396C119.423 0.00725009 117.161 0.00643153 114.9 0C114.898 0 114.896 0.000233874 114.894 0.000233874C114.89 0.000116937 114.886 0.000116937 114.881 0.000116937C114.23 -0.00502829 113.958 0.247906 113.981 0.902402C114.033 2.38235 113.779 3.83506 113.528 5.2852C112.055 13.7886 107.832 20.6351 100.923 25.7573C95.6882 29.6381 89.7506 31.6614 83.211 31.8316C83.0464 31.8358 82.9058 31.8432 82.7823 31.8554C82.1741 31.8751 82.0374 32.0446 82.0138 32.7032C82.0138 32.7048 82.0136 32.7062 82.0136 32.7078C82.0111 32.7816 82.0093 32.8593 82.0091 32.9457C82.0017 35.2817 82.0067 37.6178 82.0071 39.9539C82.0071 40.0737 82.0074 40.1935 82.0074 40.3134C82.0073 42.5777 82.0064 44.8419 82.0001 47.106C82.0001 47.1076 82.0002 47.1087 82.0002 47.1101C82.0001 47.1115 82.0002 47.1129 82.0001 47.1143C81.9949 47.7653 82.248 48.038 82.9022 48.0148C82.9183 48.0142 82.9343 48.0142 82.9503 48.0137C83.2161 48.0193 83.4815 48.0195 83.7467 48.0163C84.9363 48.0597 86.1113 48.2649 87.2845 48.4682C95.7869 49.9413 102.632 54.1646 107.754 61.0745C111.634 66.31 113.657 72.2484 113.827 78.7888C113.854 79.8119 113.978 79.9874 114.858 79.9888C119.605 79.9969 124.353 79.9867 129.1 79.9999C129.642 80.0014 129.899 79.8258 129.979 79.3897C130.012 79.2738 130.025 79.1348 130.019 78.9705C129.967 77.4906 130.221 76.0377 130.472 74.5876C131.945 66.0842 136.168 59.2376 143.077 54.1156C147.987 50.4757 153.514 48.4701 159.577 48.0945C160.016 48.1161 160.454 48.1341 160.895 48.1446C161.867 48.1674 161.988 48.0395 161.991 47.0542C161.998 44.7183 161.993 42.3821 161.993 40.0461C161.993 39.9145 161.993 39.7829 161.992 39.6513C161.993 37.4104 161.994 35.1696 162 32.9288C162 32.9143 162 32.9 162 32.8857Z" fill="#FF756A"/>
<path fill-rule="evenodd" clip-rule="evenodd" d="M204 20C204 31.0457 195.046 40 184 40C172.954 40 164 31.0457 164 20C164 8.95427 172.954 0 184 0C195.046 0 204 8.95427 204 20Z" fill="#06EFC2"/>
<path fill-rule="evenodd" clip-rule="evenodd" d="M204 60C204 71.0457 195.046 80 184 80C172.954 80 164 71.0457 164 60C164 48.9543 172.954 40 184 40C195.046 40 204 48.9543 204 60Z" fill="#06EFC2"/>
<path fill-rule="evenodd" clip-rule="evenodd" d="M244 20C244 31.0457 235.046 40 224 40C212.954 40 204 31.0457 204 20C204 8.95427 212.954 0 224 0C235.046 0 244 8.95427 244 20Z" fill="#06EFC2"/>
<path fill-rule="evenodd" clip-rule="evenodd" d="M244 60C244 71.0457 235.046 80 224 80C212.954 80 204 71.0457 204 60C204 48.9543 212.954 40 224 40C235.046 40 244 48.9543 244 60Z" fill="#06EFC2"/>
<path fill-rule="evenodd" clip-rule="evenodd" d="M294.359 0.402576C294.532 7.00836 296.598 13.0063 300.561 18.294C305.791 25.273 312.781 29.5385 321.464 31.0264C322.271 31.1647 323.079 31.3037 323.892 31.3932C324.573 31.3565 325.255 31.3414 325.939 31.3573C325.96 31.3579 325.98 31.3592 326 31.3602C322.718 15.6533 310.216 3.28236 294.34 0.0285339C294.349 0.138963 294.355 0.26203 294.359 0.402576Z" fill="#2A74FF"/>
<path fill-rule="evenodd" clip-rule="evenodd" d="M295.626 36.7539C291.882 33.6997 288.691 30.1882 286.031 26.2316C285.142 27.553 284.184 28.8357 283.151 30.0749C280.066 33.7767 276.518 36.9313 272.522 39.5613C273.855 40.4394 275.149 41.3846 276.399 42.4045C280.124 45.4422 283.3 48.9327 285.951 52.8629C286.852 51.5187 287.825 50.2146 288.874 48.9551C291.935 45.2832 295.451 42.1504 299.408 39.5333C298.109 38.673 296.847 37.7492 295.626 36.7539Z" fill="#2A74FF"/>
<mask id="mask0_119_2155" style="mask-type:alpha" maskUnits="userSpaceOnUse" x="246" y="0" width="32" height="32">
<path fill-rule="evenodd" clip-rule="evenodd" d="M246.029 0H277.831V31.3477H246.029V0Z" fill="white"/>
</mask>
<g mask="url(#mask0_119_2155)">
<path opacity="0.8" fill-rule="evenodd" clip-rule="evenodd" d="M246.403 31.3291C253.081 31.1571 259.144 29.1138 264.49 25.1941C271.545 20.0207 275.857 13.1058 277.361 4.51726C277.618 3.05263 277.878 1.58539 277.824 0.0906444C277.823 0.0592282 277.823 0.0295836 277.824 -6.10352e-05C261.886 3.20947 249.325 15.6014 246.029 31.3476C246.139 31.3388 246.262 31.3328 246.403 31.3291Z" fill="#2A74FF"/>
</g>
<path fill-rule="evenodd" clip-rule="evenodd" d="M277.667 78.7558C277.494 72.15 275.428 66.1523 271.465 60.8644C266.235 53.8854 259.245 49.6199 250.562 48.1321C249.364 47.9267 248.165 47.7193 246.95 47.6756C246.679 47.6789 246.408 47.6788 246.137 47.673C246.12 47.6735 246.104 47.6735 246.087 47.6741C246.057 47.6752 246.029 47.6749 246 47.6748C249.242 63.4403 261.768 75.8674 277.686 79.1299C277.677 79.0194 277.671 78.8961 277.667 78.7558Z" fill="#2A74FF"/>
<path opacity="0.8" fill-rule="evenodd" clip-rule="evenodd" d="M325.731 47.8051C325.281 47.7947 324.833 47.7764 324.386 47.7546C318.194 48.1339 312.55 50.1597 307.536 53.8359C300.481 59.0093 296.168 65.9241 294.664 74.5127C294.408 75.9773 294.148 77.4446 294.201 78.9393C294.204 79.0186 294.202 79.0917 294.196 79.1596C310.138 75.9515 322.703 63.5566 325.998 47.8062C325.916 47.8076 325.829 47.8075 325.731 47.8051Z" fill="#2A74FF"/>
<path fill-rule="evenodd" clip-rule="evenodd" d="M408 80C407.975 58.1421 390.076 40.4301 368 40.4301C345.924 40.4301 328.025 58.1421 328 80H408Z" fill="#FFB600"/>
<path fill-rule="evenodd" clip-rule="evenodd" d="M381.965 15.6345C376.598 11.0964 372.025 5.87882 368.213 0C366.938 1.96335 365.566 3.86932 364.086 5.71053C359.663 11.2108 354.579 15.8981 348.851 19.8058C350.762 21.1106 352.616 22.515 354.408 24.0303C359.746 28.5439 364.298 33.7302 368.098 39.5699C369.39 37.5727 370.783 35.6349 372.288 33.7635C376.675 28.3077 381.714 23.6529 387.385 19.7642C385.523 18.486 383.714 17.1133 381.965 15.6345Z" fill="#FFB600"/>
<circle cx="450" cy="40" r="40" fill="#0C0662"/>
<path fill-rule="evenodd" clip-rule="evenodd" d="M492.024 0.471893C492.243 8.80579 494.853 16.3728 499.86 23.0438C506.467 31.8485 515.299 37.2299 526.269 39.1071C527.289 39.2816 528.31 39.4569 529.337 39.5699C530.197 39.5236 531.059 39.5045 531.924 39.5246C531.95 39.5253 531.975 39.527 532 39.5282C527.853 19.7122 512.058 4.10504 492 0C492.011 0.139318 492.019 0.294579 492.024 0.471893Z" fill="#FF756A"/>
<mask id="mask1_119_2155" style="mask-type:alpha" maskUnits="userSpaceOnUse" x="532" y="0" width="40" height="40">
<path fill-rule="evenodd" clip-rule="evenodd" d="M532 0H572V39.5699H532V0Z" fill="white"/>
</mask>
<g mask="url(#mask1_119_2155)">
<path fill-rule="evenodd" clip-rule="evenodd" d="M532.47 39.5465C540.87 39.3294 548.496 36.7501 555.219 31.8023C564.093 25.2719 569.517 16.5434 571.409 5.70209C571.732 3.85329 572.058 2.00122 571.991 0.114405C571.99 0.0747488 571.99 0.0373286 571.99 -9.15527e-05C551.945 4.05128 536.146 19.6935 532 39.5699C532.139 39.5587 532.293 39.5511 532.47 39.5465Z" fill="#FF756A"/>
</g>
<path fill-rule="evenodd" clip-rule="evenodd" d="M571.976 79.5244C571.757 71.1246 569.149 63.4979 564.147 56.7739C557.545 47.8996 548.72 42.4756 537.76 40.5838C536.247 40.3226 534.733 40.0589 533.199 40.0033C532.857 40.0075 532.515 40.0074 532.172 40C532.152 40.0006 532.131 40.0006 532.11 40.0014C532.072 40.0027 532.036 40.0024 532 40.0023C536.093 60.0494 551.906 75.8515 572 80C571.989 79.8596 571.981 79.7028 571.976 79.5244Z" fill="#FF756A"/>
<mask id="mask2_119_2155" style="mask-type:alpha" maskUnits="userSpaceOnUse" x="492" y="40" width="40" height="40">
<path fill-rule="evenodd" clip-rule="evenodd" d="M492 40H532V80H492V40Z" fill="white"/>
</mask>
<g mask="url(#mask2_119_2155)">
<path fill-rule="evenodd" clip-rule="evenodd" d="M531.664 40.0644C531.099 40.0511 530.535 40.0278 529.972 40C522.185 40.4832 515.086 43.0634 508.78 47.7456C499.906 54.3349 494.483 63.1423 492.591 74.0814C492.269 75.9469 491.942 77.8157 492.009 79.7195C492.012 79.8204 492.01 79.9136 492.003 80.0001C512.053 75.9139 527.856 60.1268 532 40.0657C531.897 40.0675 531.788 40.0674 531.664 40.0644Z" fill="#FF756A"/>
</g>
<path fill-rule="evenodd" clip-rule="evenodd" d="M40 162C18.0045 161.957 0.1847 144.102 0.15976 122.073H0L0 82L40 82H40.0211L80 82L80 122.027V162H40.0796H40V162Z" fill="#06EFC2"/>
<path fill-rule="evenodd" clip-rule="evenodd" d="M82.0237 82.4719C82.2433 90.8058 84.8532 98.3728 89.8595 105.044C96.4672 113.849 105.299 119.23 116.269 121.107C117.289 121.282 118.31 121.457 119.337 121.57C120.197 121.524 121.059 121.504 121.924 121.525C121.95 121.525 121.975 121.527 122 121.528C117.853 101.712 102.058 86.105 82 82C82.0115 82.1393 82.019 82.2946 82.0237 82.4719Z" fill="#FFB600"/>
<mask id="mask3_119_2155" style="mask-type:alpha" maskUnits="userSpaceOnUse" x="122" y="82" width="40" height="40">
<path fill-rule="evenodd" clip-rule="evenodd" d="M122 82H162V121.57H122V82Z" fill="white"/>
</mask>
<g mask="url(#mask3_119_2155)">
<path fill-rule="evenodd" clip-rule="evenodd" d="M122.47 121.546C130.87 121.329 138.496 118.75 145.219 113.802C154.093 107.272 159.517 98.5434 161.409 87.7021C161.732 85.8533 162.058 84.0012 161.991 82.1144C161.99 82.0747 161.99 82.0373 161.99 81.9999C141.945 86.0513 126.146 101.694 122 121.57C122.139 121.559 122.293 121.551 122.47 121.546Z" fill="#FFB600"/>
</g>
<path fill-rule="evenodd" clip-rule="evenodd" d="M161.976 161.524C161.757 153.125 159.149 145.498 154.147 138.774C147.545 129.9 138.72 124.476 127.76 122.584C126.247 122.323 124.733 122.059 123.199 122.003C122.857 122.008 122.515 122.007 122.172 122C122.152 122.001 122.131 122.001 122.11 122.001C122.072 122.003 122.036 122.002 122 122.002C126.093 142.049 141.906 157.852 162 162C161.989 161.86 161.981 161.703 161.976 161.524Z" fill="#FFB600"/>
<mask id="mask4_119_2155" style="mask-type:alpha" maskUnits="userSpaceOnUse" x="82" y="122" width="40" height="40">
<path fill-rule="evenodd" clip-rule="evenodd" d="M82 122H122V162H82V122Z" fill="white"/>
</mask>
<g mask="url(#mask4_119_2155)">
<path fill-rule="evenodd" clip-rule="evenodd" d="M121.664 122.064C121.099 122.051 120.535 122.028 119.972 122C112.185 122.483 105.086 125.063 98.78 129.746C89.9064 136.335 84.4829 145.142 82.5912 156.081C82.2685 157.947 81.9416 159.816 82.0089 161.72C82.0125 161.82 82.0102 161.914 82.0027 162C102.053 157.914 117.856 142.127 122 122.066C121.897 122.068 121.788 122.067 121.664 122.064Z" fill="#FFB600"/>
</g>
<circle cx="204" cy="122" r="40" fill="#0C0662"/>
<path fill-rule="evenodd" clip-rule="evenodd" d="M314.749 113.609C303.606 104.434 294.111 93.8854 286.197 82C283.551 85.9694 280.702 89.8227 277.629 93.5452C268.447 104.665 257.892 114.142 246 122.042C249.966 124.68 253.817 127.519 257.537 130.583C268.62 139.708 278.07 150.194 285.958 162C288.641 157.962 291.534 154.045 294.657 150.261C303.765 139.231 314.226 129.82 326 121.958C322.135 119.374 318.379 116.599 314.749 113.609Z" fill="#FF756A"/>
<path fill-rule="evenodd" clip-rule="evenodd" d="M368 102C368 113.046 359.046 122 348 122C336.954 122 328 113.046 328 102C328 90.9543 336.954 82 348 82C359.046 82 368 90.9543 368 102Z" fill="#2A74FF"/>
<path fill-rule="evenodd" clip-rule="evenodd" d="M368 142C368 153.046 359.046 162 348 162C336.954 162 328 153.046 328 142C328 130.954 336.954 122 348 122C359.046 122 368 130.954 368 142Z" fill="#2A74FF"/>
<path fill-rule="evenodd" clip-rule="evenodd" d="M408 102C408 113.046 399.046 122 388 122C376.954 122 368 113.046 368 102C368 90.9543 376.954 82 388 82C399.046 82 408 90.9543 408 102Z" fill="#2A74FF"/>
<path fill-rule="evenodd" clip-rule="evenodd" d="M408 142C408 153.046 399.046 162 388 162C376.954 162 368 153.046 368 142C368 130.954 376.954 122 388 122C399.046 122 408 130.954 408 142Z" fill="#2A74FF"/>
<path fill-rule="evenodd" clip-rule="evenodd" d="M452.802 131.283C451.774 132.53 450.822 133.821 449.939 135.152C447.343 131.261 444.233 127.805 440.586 124.797C439.361 123.788 438.094 122.852 436.789 121.982C440.702 119.378 444.176 116.255 447.198 112.59C448.209 111.363 449.147 110.093 450.018 108.785C452.622 112.702 455.747 116.179 459.414 119.203C460.609 120.188 461.845 121.103 463.117 121.955C459.242 124.546 455.799 127.647 452.802 131.283ZM490 114.886C490 114.883 490 114.881 490 114.878C490 114.841 490 114.804 490 114.767C490.002 114.117 489.75 113.875 489.099 113.86C488.428 113.844 487.76 113.859 487.094 113.895C486.297 113.806 485.506 113.669 484.715 113.532C476.213 112.059 469.367 107.835 464.246 100.926C460.366 95.69 458.343 89.7515 458.173 83.2112C458.166 82.9601 458.153 82.7606 458.125 82.6016C458.081 82.1936 457.916 82.0613 457.458 82.0235C457.443 82.0221 457.428 82.0209 457.412 82.0199C457.385 82.018 457.356 82.0164 457.326 82.0152C457.31 82.0145 457.295 82.0138 457.279 82.0133C457.207 82.011 457.132 82.0094 457.048 82.009C454.712 82.0016 452.377 82.0067 450.041 82.0071C449.922 82.0071 449.803 82.0074 449.684 82.0075C447.423 82.0073 445.161 82.0064 442.9 82C442.898 82 442.896 82.0002 442.894 82.0002C442.89 82.0001 442.886 82.0001 442.881 82.0001C442.23 81.995 441.958 82.2479 441.981 82.9024C442.033 84.3824 441.779 85.8351 441.528 87.2852C440.055 95.7886 435.832 102.635 428.923 107.757C423.688 111.638 417.751 113.661 411.211 113.832C411.046 113.836 410.906 113.843 410.782 113.855C410.174 113.875 410.037 114.045 410.014 114.703C410.014 114.705 410.014 114.706 410.014 114.708C410.011 114.782 410.009 114.859 410.009 114.946C410.002 117.282 410.007 119.618 410.007 121.954C410.007 122.074 410.007 122.194 410.007 122.313C410.007 124.578 410.006 126.842 410 129.106C410 129.108 410 129.109 410 129.11C410 129.112 410 129.113 410 129.114C409.995 129.765 410.248 130.038 410.902 130.015C410.918 130.014 410.934 130.014 410.95 130.014C411.216 130.019 411.481 130.02 411.747 130.016C412.936 130.06 414.111 130.265 415.284 130.468C423.787 131.941 430.632 136.165 435.754 143.074C439.634 148.31 441.657 154.248 441.827 160.789C441.854 161.812 441.978 161.987 442.858 161.989C447.605 161.997 452.353 161.987 457.1 162C457.642 162.001 457.899 161.826 457.979 161.39C458.012 161.274 458.025 161.135 458.019 160.971C457.967 159.491 458.221 158.038 458.472 156.588C459.945 148.084 464.168 141.238 471.077 136.116C475.987 132.476 481.514 130.47 487.577 130.095C488.016 130.116 488.454 130.134 488.895 130.145C489.867 130.167 489.988 130.04 489.991 129.054C489.998 126.718 489.993 124.382 489.993 122.046C489.993 121.915 489.993 121.783 489.992 121.651C489.993 119.41 489.994 117.17 490 114.929C490 114.914 490 114.9 490 114.886Z" fill="#06EFC2"/>
<path fill-rule="evenodd" clip-rule="evenodd" d="M532 148.569C517.326 148.569 505.431 136.674 505.431 122C505.431 107.326 517.326 95.4307 532 95.4307C546.674 95.4307 558.569 107.326 558.569 122C558.569 136.674 546.674 148.569 532 148.569ZM532 82C509.909 82 492 99.9086 492 122C492 144.091 509.909 162 532 162C554.091 162 572 144.091 572 122C572 99.9086 554.091 82 532 82Z" fill="#0C0662"/>
<circle cx="40" cy="204" r="40" fill="#0C0662"/>
<path fill-rule="evenodd" clip-rule="evenodd" d="M162 244C161.975 222.142 144.076 204.43 122 204.43C99.9237 204.43 82.0249 222.142 82 244H162Z" fill="#2A74FF"/>
<path fill-rule="evenodd" clip-rule="evenodd" d="M135.965 179.635C130.598 175.096 126.025 169.879 122.213 164C120.938 165.963 119.566 167.869 118.086 169.711C113.663 175.211 108.579 179.898 102.851 183.806C104.762 185.111 106.616 186.515 108.408 188.03C113.746 192.544 118.298 197.73 122.098 203.57C123.39 201.573 124.783 199.635 126.288 197.764C130.675 192.308 135.714 187.653 141.385 183.764C139.523 182.486 137.714 181.113 135.965 179.635Z" fill="#2A74FF"/>
<path fill-rule="evenodd" clip-rule="evenodd" d="M212.359 164.403C212.532 171.008 214.598 177.006 218.561 182.294C223.791 189.273 230.781 193.539 239.464 195.026C240.271 195.165 241.079 195.304 241.892 195.393C242.573 195.357 243.255 195.341 243.939 195.357C243.96 195.358 243.98 195.359 244 195.36C240.718 179.653 228.216 167.282 212.34 164.029C212.349 164.139 212.355 164.262 212.359 164.403Z" fill="#FFB600"/>
<path fill-rule="evenodd" clip-rule="evenodd" d="M213.626 200.754C209.882 197.7 206.691 194.188 204.031 190.232C203.142 191.553 202.184 192.836 201.151 194.075C198.066 197.777 194.518 200.931 190.522 203.561C191.855 204.439 193.149 205.385 194.399 206.404C198.124 209.442 201.3 212.933 203.951 216.863C204.852 215.519 205.825 214.215 206.874 212.955C209.935 209.283 213.451 206.15 217.408 203.533C216.109 202.673 214.847 201.749 213.626 200.754Z" fill="#FFB600"/>
<mask id="mask5_119_2155" style="mask-type:alpha" maskUnits="userSpaceOnUse" x="164" y="164" width="32" height="32">
<path fill-rule="evenodd" clip-rule="evenodd" d="M164.029 164H195.831V195.348H164.029V164Z" fill="white"/>
</mask>
<g mask="url(#mask5_119_2155)">
<path opacity="0.8" fill-rule="evenodd" clip-rule="evenodd" d="M164.403 195.329C171.081 195.157 177.144 193.114 182.49 189.194C189.545 184.021 193.857 177.106 195.361 168.517C195.618 167.053 195.878 165.585 195.824 164.091C195.823 164.059 195.823 164.03 195.824 164C179.886 167.209 167.325 179.601 164.029 195.348C164.139 195.339 164.262 195.333 164.403 195.329Z" fill="#FFB600"/>
</g>
<path fill-rule="evenodd" clip-rule="evenodd" d="M195.667 242.756C195.494 236.15 193.428 230.152 189.465 224.864C184.235 217.885 177.245 213.62 168.562 212.132C167.364 211.927 166.165 211.719 164.95 211.676C164.679 211.679 164.408 211.679 164.137 211.673C164.12 211.674 164.104 211.674 164.087 211.674C164.057 211.675 164.029 211.675 164 211.675C167.242 227.44 179.768 239.867 195.686 243.13C195.677 243.019 195.671 242.896 195.667 242.756Z" fill="#FFB600"/>
<path opacity="0.8" fill-rule="evenodd" clip-rule="evenodd" d="M243.731 211.805C243.281 211.795 242.833 211.776 242.386 211.755C236.194 212.134 230.55 214.16 225.536 217.836C218.481 223.009 214.168 229.924 212.664 238.513C212.408 239.977 212.148 241.445 212.201 242.939C212.204 243.019 212.202 243.092 212.196 243.16C228.138 239.951 240.703 227.557 243.998 211.806C243.916 211.808 243.829 211.807 243.731 211.805Z" fill="#FFB600"/>
<path fill-rule="evenodd" clip-rule="evenodd" d="M286 230.569C271.326 230.569 259.431 218.674 259.431 204C259.431 189.326 271.326 177.431 286 177.431C300.674 177.431 312.569 189.326 312.569 204C312.569 218.674 300.674 230.569 286 230.569ZM286 164C263.909 164 246 181.909 246 204C246 226.091 263.909 244 286 244C308.091 244 326 226.091 326 204C326 181.909 308.091 164 286 164Z" fill="#0C0662"/>
<path fill-rule="evenodd" clip-rule="evenodd" d="M407.84 203.927C407.815 181.872 389.952 164 367.92 164C345.873 164 328 181.896 328 203.973C328 226.049 345.873 243.945 367.92 243.945C367.94 243.945 367.959 243.945 367.979 243.945V244H408V203.927H407.84Z" fill="#FF756A"/>
<path fill-rule="evenodd" clip-rule="evenodd" d="M478.749 195.609C467.606 186.434 458.111 175.885 450.197 164C447.551 167.969 444.702 171.823 441.629 175.545C432.447 186.665 421.892 196.142 410 204.042C413.966 206.68 417.817 209.519 421.537 212.583C432.62 221.708 442.07 232.194 449.958 244C452.641 239.962 455.534 236.045 458.657 232.261C467.765 221.231 478.226 211.82 490 203.958C486.135 201.374 482.379 198.599 478.749 195.609Z" fill="#2A74FF"/>
<path fill-rule="evenodd" clip-rule="evenodd" d="M532 244C510.005 243.957 492.185 226.102 492.16 204.073H492V164L532 164H532.021H572V204.027V244H532.08H532V244Z" fill="#FFB600"/>
</svg>
