<svg width="80" height="80" viewBox="0 0 80 80" fill="none" xmlns="http://www.w3.org/2000/svg">
<path fill-rule="evenodd" clip-rule="evenodd" d="M80 80.0001C79.975 58.1421 62.0763 40.4302 39.9999 40.4302C17.9237 40.4302 0.0248563 58.1421 0 80.0001H80Z" fill="#FFB600"/>
<path fill-rule="evenodd" clip-rule="evenodd" d="M53.9652 15.6345C48.5981 11.0964 44.0248 5.87882 40.2128 0C38.9383 1.96335 37.566 3.86932 36.0856 5.71053C31.6631 11.2108 26.579 15.8981 20.8511 19.8058C22.7615 21.1106 24.6163 22.515 26.4083 24.0303C31.7464 28.5439 36.2983 33.7302 40.0978 39.5699C41.39 37.5727 42.7833 35.6349 44.288 33.7635C48.6748 28.3077 53.7135 23.6529 59.3848 19.7642C57.5231 18.486 55.7141 17.1133 53.9652 15.6345Z" fill="#FFB600"/>
</svg>
