<svg width="80" height="80" viewBox="0 0 80 80" fill="none" xmlns="http://www.w3.org/2000/svg">
<path fill-rule="evenodd" clip-rule="evenodd" d="M42.8021 49.283C41.774 50.5301 40.822 51.8213 39.9393 53.1521C37.3431 49.2609 34.233 45.805 30.5858 42.7972C29.3614 41.7876 28.094 40.8517 26.7887 39.9822C30.7023 37.3783 34.1761 34.2549 37.1978 30.5899C38.2093 29.3628 39.1469 28.0928 40.0177 26.7846C42.6222 30.7019 45.747 34.1786 49.4141 37.2026C50.609 38.1881 51.845 39.1027 53.117 39.9545C49.2421 42.5457 45.7994 45.6475 42.8021 49.283ZM79.9998 32.8857C79.9999 32.8831 79.9997 32.8809 79.9997 32.8783C79.9998 32.8411 79.9998 32.804 79.9999 32.7668C80.0017 32.1169 79.7503 31.8749 79.0986 31.8596C78.4285 31.8438 77.76 31.8586 77.0936 31.895C76.2975 31.8064 75.506 31.6688 74.7154 31.5318C66.2131 30.0587 59.3675 25.8354 54.2461 18.9255C50.3657 13.69 48.3427 7.75151 48.1726 1.21123C48.166 0.960052 48.1534 0.760557 48.1255 0.60164C48.0807 0.193647 47.9162 0.0612749 47.4583 0.0235043C47.4433 0.0221011 47.4279 0.0209317 47.4123 0.0198793C47.3846 0.0180083 47.3555 0.0163712 47.3258 0.0152018C47.3104 0.0145002 47.2951 0.0137986 47.2791 0.0133308C47.2073 0.0109921 47.1319 0.00935495 47.0481 0.00900414C44.7124 0.00163712 42.3767 0.0066654 40.0409 0.00713315C39.922 0.00713315 39.8031 0.00736702 39.6843 0.00748396C37.4229 0.00725009 35.1614 0.00643153 32.9 0C32.8979 0 32.8962 0.000233874 32.8941 0.000233874C32.8899 0.000116937 32.8855 0.000116937 32.8813 0.000116937C32.2304 -0.00502829 31.9578 0.247906 31.981 0.902402C32.0333 2.38235 31.7789 3.83506 31.5276 5.2852C30.0548 13.7886 25.832 20.6351 18.923 25.7573C13.6882 29.6381 7.75057 31.6614 1.21103 31.8316C1.04641 31.8358 0.905751 31.8432 0.782282 31.8554C0.174056 31.8751 0.0373747 32.0446 0.0137566 32.7032C0.0137566 32.7048 0.0136396 32.7062 0.0136396 32.7078C0.0110674 32.7816 0.00931355 32.8593 0.00907971 32.9457C0.00171365 35.2817 0.00674128 37.6178 0.00709204 39.9539C0.00709204 40.0737 0.0074428 40.1935 0.0074428 40.3134C0.00732588 42.5777 0.00639051 44.8419 7.67477e-05 47.106C7.67477e-05 47.1076 0.000193669 47.1087 0.000193669 47.1101C7.67477e-05 47.1115 0.000193669 47.1129 7.67477e-05 47.1143C-0.0050678 47.7653 0.24795 48.038 0.902243 48.0148C0.918262 48.0142 0.93428 48.0142 0.950298 48.0137C1.21606 48.0193 1.48147 48.0195 1.74665 48.0163C2.93633 48.0597 4.11127 48.2649 5.28446 48.4682C13.7869 49.9413 20.6324 54.1646 25.7539 61.0745C29.6343 66.31 31.6572 72.2484 31.8274 78.7888C31.8541 79.8119 31.9779 79.9874 32.8578 79.9888C37.6052 79.9969 42.3526 79.9867 47.0999 79.9999C47.6417 80.0014 47.8993 79.8258 47.9791 79.3897C48.0118 79.2738 48.0248 79.1348 48.0189 78.9705C47.9666 77.4906 48.2211 76.0377 48.4722 74.5876C49.9452 66.0842 54.168 59.2376 61.077 54.1156C65.9865 50.4757 71.5144 48.4701 77.5773 48.0945C78.0155 48.1161 78.4544 48.1341 78.8948 48.1446C79.8673 48.1674 79.9877 48.0395 79.9909 47.0542C79.9983 44.7183 79.9932 42.3821 79.9928 40.0461C79.9928 39.9145 79.9925 39.7829 79.9924 39.6513C79.9925 37.4104 79.9936 35.1696 79.9997 32.9288C79.9998 32.9143 79.9997 32.9 79.9998 32.8857Z" fill="#FF756A"/>
</svg>
