<svg width="81" height="36" viewBox="0 0 81 36" fill="none" xmlns="http://www.w3.org/2000/svg">
<g filter="url(#filter0_d_277_678)">
<rect x="14" y="2" width="67" height="28" rx="14" fill="white"/>
<circle cx="32" cy="16" r="4" fill="#06EFC2"/>
<path d="M42.938 21H49.448V19.838H44.198V10.99H42.938V21ZM50.522 21H51.656V13.762H50.522V21ZM50.522 12.39H51.656V10.99H50.522V12.39ZM54.9936 21H56.2536L58.8576 13.762H57.6816L56.1556 18.354C55.9456 18.984 55.6796 19.88 55.6796 19.88H55.6516C55.6516 19.88 55.3856 18.998 55.1756 18.354L53.6776 13.762H52.4596L54.9936 21ZM62.612 21.196C64.25 21.196 65.384 20.314 65.72 18.76H64.614C64.362 19.74 63.662 20.244 62.612 20.244C61.156 20.244 60.358 19.124 60.274 17.654H65.874C65.874 15.26 64.712 13.58 62.542 13.58C60.484 13.58 59.112 15.288 59.112 17.388C59.112 19.488 60.4 21.196 62.612 21.196ZM62.542 14.476C63.844 14.476 64.586 15.358 64.656 16.8H60.302C60.47 15.484 61.198 14.476 62.542 14.476Z" fill="#06EFC2"/>
</g>
<defs>
<filter id="filter0_d_277_678" x="0" y="0" width="81" height="36" filterUnits="userSpaceOnUse" color-interpolation-filters="sRGB">
<feFlood flood-opacity="0" result="BackgroundImageFix"/>
<feColorMatrix in="SourceAlpha" type="matrix" values="0 0 0 0 0 0 0 0 0 0 0 0 0 0 0 0 0 0 127 0" result="hardAlpha"/>
<feOffset dx="-10" dy="2"/>
<feGaussianBlur stdDeviation="2"/>
<feColorMatrix type="matrix" values="0 0 0 0 0.0627451 0 0 0 0 0.176471 0 0 0 0 0.278431 0 0 0 0.02 0"/>
<feBlend mode="normal" in2="BackgroundImageFix" result="effect1_dropShadow_277_678"/>
<feBlend mode="normal" in="SourceGraphic" in2="effect1_dropShadow_277_678" result="shape"/>
</filter>
</defs>
</svg>
