<svg width="123" height="36" viewBox="0 0 123 36" fill="none" xmlns="http://www.w3.org/2000/svg">
<g filter="url(#filter0_d_119_970)">
<rect x="14" y="2" width="109" height="28" rx="14" fill="white"/>
<circle cx="32" cy="16" r="4" fill="#FFB600"/>
<path d="M42.966 21H44.226V10.99H42.966V21ZM47.0895 13.762H45.9555V21H47.0895V16.548C47.0895 15.358 47.9295 14.546 49.0775 14.546C50.0995 14.546 50.7155 15.078 50.7155 16.016V21H51.8495V15.918C51.8495 14.42 50.9255 13.594 49.4135 13.594C48.3635 13.594 47.6355 14.028 47.1175 14.714H47.0895V13.762ZM55.7485 21H57.0085V16.8H59.7385C61.9225 16.8 62.9725 15.694 62.9725 13.86C62.9725 13.104 62.7205 12.446 62.3005 11.956C61.7825 11.34 60.9705 10.99 59.9205 10.99H55.7485V21ZM57.0085 12.082H59.7105C60.9845 12.082 61.7265 12.712 61.7265 13.916C61.7265 15.064 61.0545 15.778 59.6405 15.778H57.0085V12.082ZM65.1501 13.762H64.0161V21H65.1501V16.982C65.1501 15.624 66.1301 14.784 67.2501 14.784C67.4741 14.784 67.5861 14.798 67.7541 14.854H67.7961V13.762C67.6561 13.706 67.5441 13.678 67.3341 13.678C66.3681 13.678 65.6121 14.266 65.1781 14.966H65.1501V13.762ZM71.6355 21.196C73.8055 21.196 75.1215 19.488 75.1215 17.388C75.1215 15.288 73.8055 13.58 71.6355 13.58C69.4795 13.58 68.1355 15.288 68.1355 17.388C68.1355 19.488 69.4795 21.196 71.6355 21.196ZM71.6355 20.244C70.0955 20.244 69.2975 18.984 69.2975 17.388C69.2975 15.792 70.0955 14.518 71.6355 14.518C73.1755 14.518 73.9595 15.792 73.9595 17.388C73.9595 18.984 73.1755 20.244 71.6355 20.244ZM79.1364 23.408C81.0544 23.408 82.3144 22.512 82.3144 20.608V13.762H81.1804V14.686H81.1524C80.6624 14 79.9904 13.594 78.9404 13.594C77.2604 13.594 75.8464 14.91 75.8464 17.164C75.8464 19.25 77.1344 20.748 79.0104 20.748C80.0464 20.748 80.6204 20.314 81.1524 19.628H81.1804V20.65C81.1804 21.91 80.4384 22.512 79.1084 22.512C77.9884 22.512 77.2324 22.204 77.1204 21.406H76.0704C76.1964 22.652 77.2604 23.408 79.1364 23.408ZM79.0664 19.796C77.7224 19.796 77.0084 18.76 77.0084 17.178C77.0084 15.61 77.6944 14.546 79.0524 14.546C80.5924 14.546 81.2644 15.526 81.2644 17.108C81.2644 18.634 80.7324 19.796 79.0664 19.796ZM84.988 13.762H83.854V21H84.988V16.982C84.988 15.624 85.968 14.784 87.088 14.784C87.312 14.784 87.424 14.798 87.592 14.854H87.634V13.762C87.494 13.706 87.382 13.678 87.172 13.678C86.206 13.678 85.45 14.266 85.016 14.966H84.988V13.762ZM91.4734 21.196C93.1114 21.196 94.2454 20.314 94.5814 18.76H93.4754C93.2234 19.74 92.5234 20.244 91.4734 20.244C90.0174 20.244 89.2194 19.124 89.1354 17.654H94.7354C94.7354 15.26 93.5734 13.58 91.4034 13.58C89.3454 13.58 87.9734 15.288 87.9734 17.388C87.9734 19.488 89.2614 21.196 91.4734 21.196ZM91.4034 14.476C92.7054 14.476 93.4474 15.358 93.5174 16.8H89.1634C89.3314 15.484 90.0594 14.476 91.4034 14.476ZM98.5882 21.21C100.254 21.21 101.444 20.468 101.444 19.012C101.444 17.346 100.226 17.024 98.7702 16.73C97.5242 16.478 96.8242 16.324 96.8242 15.54C96.8242 14.966 97.2442 14.504 98.2802 14.504C99.3582 14.504 99.8762 14.924 99.9882 15.876H101.15C100.982 14.462 100.1 13.608 98.3082 13.608C96.6282 13.608 95.7042 14.392 95.7042 15.596C95.7042 17.178 96.9782 17.472 98.4062 17.766C99.7362 18.046 100.296 18.256 100.296 19.068C100.296 19.74 99.8062 20.258 98.6162 20.258C97.5382 20.258 96.6982 19.908 96.5442 18.648H95.3822C95.4942 20.272 96.6002 21.21 98.5882 21.21ZM105.274 21.21C106.94 21.21 108.13 20.468 108.13 19.012C108.13 17.346 106.912 17.024 105.456 16.73C104.21 16.478 103.51 16.324 103.51 15.54C103.51 14.966 103.93 14.504 104.966 14.504C106.044 14.504 106.562 14.924 106.674 15.876H107.836C107.668 14.462 106.786 13.608 104.994 13.608C103.314 13.608 102.39 14.392 102.39 15.596C102.39 17.178 103.664 17.472 105.092 17.766C106.422 18.046 106.982 18.256 106.982 19.068C106.982 19.74 106.492 20.258 105.302 20.258C104.224 20.258 103.384 19.908 103.23 18.648H102.068C102.18 20.272 103.286 21.21 105.274 21.21Z" fill="#FFB600"/>
</g>
<defs>
<filter id="filter0_d_119_970" x="0" y="0" width="123" height="36" filterUnits="userSpaceOnUse" color-interpolation-filters="sRGB">
<feFlood flood-opacity="0" result="BackgroundImageFix"/>
<feColorMatrix in="SourceAlpha" type="matrix" values="0 0 0 0 0 0 0 0 0 0 0 0 0 0 0 0 0 0 127 0" result="hardAlpha"/>
<feOffset dx="-10" dy="2"/>
<feGaussianBlur stdDeviation="2"/>
<feColorMatrix type="matrix" values="0 0 0 0 0.0627451 0 0 0 0 0.176471 0 0 0 0 0.278431 0 0 0 0.02 0"/>
<feBlend mode="normal" in2="BackgroundImageFix" result="effect1_dropShadow_119_970"/>
<feBlend mode="normal" in="SourceGraphic" in2="effect1_dropShadow_119_970" result="shape"/>
</filter>
</defs>
</svg>
