<svg width="16" height="16" viewBox="0 0 16 16" fill="none" xmlns="http://www.w3.org/2000/svg">
<path d="M12.0541 13.9999C11.3376 13.9999 10.7568 13.4112 10.7568 12.6849L10.7568 3.31501C10.7568 2.58872 11.2835 1.99994 12 1.99994M3.94595 13.9999C4.66242 13.9999 5.24324 13.4112 5.24324 12.6849L5.24324 3.31501C5.24324 2.58872 4.66242 1.99994 3.94595 1.99994M8.00004 13.9999V13.9599M8.00004 11.05V11.0099M8.00004 8.01996V7.97991M8.00004 5.02997V4.98993M8.00004 2.03998V1.99994M3.96395 1.99994C3.24748 1.99994 2.66666 2.58872 2.66666 3.31501V12.6849C2.66666 13.4112 3.24748 13.9999 3.96395 13.9999M12.036 13.9999C12.7525 13.9999 13.3333 13.4112 13.3333 12.6849V3.31501C13.3333 2.58872 12.7525 1.99994 12.036 1.99994" stroke="#4162DC" stroke-linecap="round" stroke-linejoin="round"/>
</svg>
