<svg width="16" height="16" viewBox="0 0 16 16" fill="none" xmlns="http://www.w3.org/2000/svg">
<path d="M12.0541 14C11.3377 14 10.7568 13.4112 10.7568 12.6849L10.7569 3.31507C10.7569 2.58878 11.2836 2 12.0001 2M3.94604 14C4.66252 14 5.24334 13.4112 5.24334 12.6849L5.24334 3.31507C5.24334 2.58878 4.66252 2 3.94604 2M8.00013 14V13.96M8.00013 11.0501V11.01M8.00013 8.02002V7.97998M8.00013 5.03003V4.98999M8.00013 2.04004V2M3.96405 2C3.24757 2 2.66675 2.58878 2.66675 3.31507V12.6849C2.66675 13.4112 3.24757 14 3.96405 14M12.0361 14C12.7526 14 13.3334 13.4112 13.3334 12.6849V3.31507C13.3334 2.58878 12.7526 2 12.0361 2" stroke="#4162DC" stroke-linecap="round" stroke-linejoin="round"/>
</svg>
