<svg width="16" height="16" viewBox="0 0 16 16" fill="none" xmlns="http://www.w3.org/2000/svg">
<path d="M8.5781 11.3846L7.82115 3.57021C7.7715 3.05767 7.34075 2.66663 6.82581 2.66663H5.20018H3.66675C3.11446 2.66663 2.66675 3.11434 2.66675 3.66663V10.3846C2.66675 10.9369 3.11446 11.3846 3.66675 11.3846H6.4669M8.5781 11.3846H6.4669M8.5781 11.3846L6.88914 14M4.07025 8.76611L5.29066 5.4716L6.60368 8.76611M4.49068 7.63115H6.15135M7.94474 4.84611H13.0001C13.5524 4.84611 14.0001 5.29383 14.0001 5.84611V13C14.0001 13.5522 13.5524 14 13.0001 14H6.88914M6.88914 14L6.4669 11.3846M9.62347 8.21015H10.1608M12.5791 8.21015H11.1229M11.1229 7.26103V8.21015M11.1229 8.21015H10.1608M10.1608 8.21015C10.3016 9.08195 10.7289 10.2444 12.4961 11.0368M12.0321 8.21015C11.8914 9.08195 11.6712 10.2306 9.93465 11.0368" stroke="#4162DC" stroke-linecap="round" stroke-linejoin="round"/>
</svg>
