<svg width="16" height="16" viewBox="0 0 16 16" fill="none" xmlns="http://www.w3.org/2000/svg">
<g id="Lang" opacity="0.7">
<path id="Vector 1" d="M7.25908 1.59998L7.75638 1.5481C7.72981 1.29342 7.51514 1.09998 7.25908 1.09998V1.59998ZM1 1.59998V1.09998C0.723858 1.09998 0.5 1.32383 0.5 1.59998H1ZM1 11.6H0.5C0.5 11.8761 0.723858 12.1 1 12.1V11.6ZM8.30226 11.6L8.71275 11.8855C8.78119 11.787 8.812 11.6673 8.79956 11.5481L8.30226 11.6ZM2.26932 8.41117L2.08405 8.87558L3.01287 9.24612L3.19814 8.78171L2.26932 8.41117ZM4.2413 4.81745L4.70077 4.62024L3.77689 4.63218L4.2413 4.81745ZM5.4038 8.79364L5.60101 9.25311L6.51994 8.8587L6.32274 8.39923L5.4038 8.79364ZM3.25309 6.79458C2.97694 6.79458 2.75309 7.01844 2.75309 7.29458C2.75309 7.57072 2.97694 7.79458 3.25309 7.79458V6.79458ZM5.3045 7.79458C5.58065 7.79458 5.8045 7.57072 5.8045 7.29458C5.8045 7.01844 5.58065 6.79458 5.3045 6.79458V7.79458ZM7.51987 3.59998C7.24373 3.59998 7.01987 3.82383 7.01987 4.09998C7.01987 4.37612 7.24373 4.59998 7.51987 4.59998V3.59998ZM15 4.09998H15.5C15.5 3.82383 15.2761 3.59998 15 3.59998V4.09998ZM15 14.6V15.1C15.2761 15.1 15.5 14.8761 15.5 14.6H15ZM6.2159 14.6L5.72329 14.6856C5.76493 14.9251 5.9728 15.1 6.2159 15.1V14.6ZM9.5936 7.45872H9.0936V8.45872H9.5936V7.45872ZM13.2447 8.45872H13.7447V7.45872H13.2447V8.45872ZM11.9458 6.87003V6.37003H10.9458V6.87003H11.9458ZM12.95 11.6627L13.4115 11.8549L13.7959 10.9317L13.3343 10.7395L12.95 11.6627ZM13.0616 8.04437C13.1089 7.77231 12.9267 7.51342 12.6546 7.46611C12.3825 7.41881 12.1237 7.60102 12.0764 7.87308L13.0616 8.04437ZM9.78007 10.7419L9.32092 10.9399L9.71678 11.8582L10.1759 11.6603L9.78007 10.7419ZM0.5 1.59998V11.6H1.5V1.59998H0.5ZM8.79956 11.5481L7.75638 1.5481L6.76178 1.65185L7.80496 11.6519L8.79956 11.5481ZM3.19814 8.78171L4.70571 5.00271L3.77689 4.63218L2.26932 8.41117L3.19814 8.78171ZM3.78183 5.01465L5.4038 8.79364L6.32274 8.39923L4.70077 4.62024L3.78183 5.01465ZM3.25309 7.79458H5.3045V6.79458H3.25309V7.79458ZM7.51987 4.59998H15V3.59998H7.51987V4.59998ZM14.5 4.09998V14.6H15.5V4.09998H14.5ZM15 14.1H6.2159V15.1H15V14.1ZM1 12.1H5.69431V11.1H1V12.1ZM5.69431 12.1H8.30226V11.1H5.69431V12.1ZM6.70851 14.5143L6.18692 11.5143L5.2017 11.6856L5.72329 14.6856L6.70851 14.5143ZM11.4458 8.45872H13.2447V7.45872H11.4458V8.45872ZM10.9458 6.87003V7.95872H11.9458V6.87003H10.9458ZM9.5936 8.45872H10.2574V7.45872H9.5936V8.45872ZM10.2574 8.45872H11.4458V7.45872H10.2574V8.45872ZM9.76479 8.04437C9.86035 8.59399 10.0577 9.25889 10.5455 9.91298C11.0339 10.5678 11.7891 11.1793 12.95 11.6627L13.3343 10.7395C12.3122 10.3139 11.7119 9.80425 11.3472 9.31514C10.9818 8.82528 10.8283 8.32346 10.75 7.87308L9.76479 8.04437ZM7.25908 1.09998H4.12954V2.09998H7.25908V1.09998ZM4.12954 1.09998H1V2.09998H4.12954V1.09998ZM12.0764 7.87308C11.9901 8.36911 11.8906 8.86229 11.5893 9.34227C11.2939 9.81276 10.7757 10.3127 9.78007 10.7419L10.1759 11.6603C11.3255 11.1647 12.0159 10.5435 12.4362 9.87399C12.8506 9.21397 12.974 8.54834 13.0616 8.04437L12.0764 7.87308ZM7.89177 11.3145L5.80541 14.3145L6.62639 14.8855L8.71275 11.8855L7.89177 11.3145Z" fill="white"/>
</g>
</svg>
