<svg width="16" height="16" viewBox="0 0 16 16" fill="none" xmlns="http://www.w3.org/2000/svg">
<path d="M8.57802 11.3846L7.82107 3.57021C7.77142 3.05767 7.34067 2.66663 6.82573 2.66663H5.20011H3.66667C3.11439 2.66663 2.66667 3.11434 2.66667 3.66663V10.3846C2.66667 10.9369 3.11439 11.3846 3.66667 11.3846H6.46683M8.57802 11.3846H6.46683M8.57802 11.3846L6.88907 14M4.07017 8.76611L5.29058 5.4716L6.60361 8.76611M4.4906 7.63115H6.15127M7.94466 4.84611H13C13.5523 4.84611 14 5.29383 14 5.84611V13C14 13.5522 13.5523 14 13 14H6.88907M6.88907 14L6.46683 11.3846M9.6234 8.21015H10.1608M12.5791 8.21015H11.1228M11.1228 7.26103V8.21015M11.1228 8.21015H10.1608M10.1608 8.21015C10.3015 9.08195 10.7288 10.2444 12.496 11.0368M12.032 8.21015C11.8913 9.08195 11.6712 10.2306 9.93458 11.0368" stroke="#4162DC" stroke-linecap="round" stroke-linejoin="round"/>
</svg>
